<svg viewBox="-100 -100 200 200" width="256px" height="256px" stroke="#8c00ff" fill="#9494e4" xmlns="http://www.w3.org/2000/svg">
  <path d="M2.4-16c1.2.3 2.7-4 4.4-6 2-2.2 4-3.5 7-6.6C20-35.1 40-61 41-60.2c1.2.9-27.6 40.7-25.2 43.2 1.5 1.5 10.2-6.2 16.6-8.8 7.9-3.3 26.8-10.2 27.4-8.7 1 1.7-29.8 20.5-38 26C17.8-6 12.7-4.3 13-3c1 3 49-7.3 60.4-2.5 5.9 2.5 11.7 9 10.7 11.8-1.4 4-30.2 1.2-32.2 5.5-1.2 2.8 8.1 9.6 7 11.3-2 2.6-30.5-11-33.4-8.4-1.2 1.1-.3 3.5.9 6.3 3.3 8 31.5 32.4 30.5 40.3-.5 4-5.8 8.1-9.8 7.8C40 68.6 26 47.4 18.7 38.7c-5-6-8.7-10.6-11.7-16C4.4 18.2 2.7 8.7 1.3 8.9c-3 .6-.7 72.9-1.3 72.9-.6 0 1.2-66-2.3-66.6-2-.4-5.3 18.1-9.2 22.2-2.5 2.6-5 1.6-8.4 4-6.7 4.7-24.4 28.3-26.6 26.9-2-1.3 4.6-19.5 10.1-29 6.6-11.3 30-31.3 28.8-33.1-.6-.8-3.8 1.3-7.5 2.6C-26 12.5-73.3 35-78 30.6c-2-2.1.5-9.9 4.4-13.8 7.2-7.2 47-11.1 46.7-14.8-.2-3.2-36.1-5.3-36-6.7 0-1.4 34 1.6 35.3-1.6.7-1.6-6.2-4.8-6.8-7.2-.4-1.8.4-4 1.6-5.4 1.2-1.4 5.2-.8 5.6-2.7 1.3-4.7-25.6-28-23.8-33.3.9-2.8 7.2-3.4 11-3.6 4.2-.1 9.1.4 13.4 3.4 6.5 4.6 14.9 28 18 27.4 2-.3 1.5-7.3 2.4-12.7 1.7-9.9 4.7-41.3 6.1-41.3C1.8-81.6-1-17 2.4-16"/>
</svg>

