<?xml version="1.0" standalone="no"?>
<svg xmlns="http://www.w3.org/2000/svg" xmlns:xlink="http://www.w3.org/1999/xlink" height="200px" width="200px">
    <defs>
        <pattern id="doodad" width="9" height="9" viewBox="0 0 40 40" patternUnits="userSpaceOnUse"
            patternTransform="rotate(45)">
            <rect width="100%" height="100%" fill="rgba(139,149,168,0.267)" />
            <path
                d="M0 37a 7-7 0 0 0 7-7a 13-13 0 0 1 13-13a 7-7 0 0 0 7-7a 13-13 0 0 1 13-13v6a-7 7 0 0 0-7 7a-13 13 0 0 1-13 13a-7 7 0 0 0-7 7a-13 13 0 0 1-13 13zM0-3a 7-7 0 0 0 7-7h6a-13 13 0 0 1-13 13zM0-3a 13 13 0 0 1 13 13a 7 7 0 0 0 7 7a 13 13 0 0 1 13 13a 7 7 0 0 0 7 7a 13 13 0 0 1 13 13a 7 7 0 0 1 7 7v6a-13-13 0 0 1-13-13a-7-7 0 0 0-7-7a-13-13 0 0 1-13-13a-7-7 0 0 0-7-7a-13-13 0 0 1-13-13a-7-7 0 0 0-7-7a-13-13 0 0 1-13-13a-7-7 0 0 1-7-7a-13-13 0 0 0-13-13h6a 7 7 0 0 1 7 7a 7 7 0 0 0 7 7zM40-3a 13 13 0 0 1 13 13h-6a-7-7 0 0 1-7-7a-13-13 0 0 1-13-13a-7-7 0 0 1-7-7a-13-13 0 0 1-13-13z"
                fill="rgba(86,100,124,0.274)" />
            <path
                d="M-6 38a 8-8 0 0 0 8-8a 12-12 0 0 1 12-12a 8-8 0 0 0 8-8a 12-12 0 0 1 12-12v4a-8 8 0 0 0-8 8a-12 12 0 0 1-12 12a-8 8 0 0 0-8 8a-12 12 0 0 1-12 12zM-6-2a 8-8 0 0 0 8-8h4a-12 12 0 0 1-12 12zM-6-2a 12 12 0 0 1 12 12a 8 8 0 0 0 8 8a 12 12 0 0 1 12 12a 8 8 0 0 0 8 8a 12 12 0 0 1 12 12a 8 8 0 0 1 8 8v4a-12-12 0 0 1-12-12a-8-8 0 0 0-8-8a-12-12 0 0 1-12-12a-8-8 0 0 0-8-8a-12-12 0 0 1-12-12a-8-8 0 0 0-8-8a-12-12 0 0 1-12-12a-8-8 0 0 1-8-8a-12-12 0 0 0-12-12h4a 8 8 0 0 1 8 8a 8 8 0 0 0 8 8zM34-2a 12 12 0 0 1 12 12a 8 8 0 0 0 8 8a 12 12 0 0 1 12 12h-4a-8-8 0 0 0-8-8a-12-12 0 0 1-12-12a-8-8 0 0 0-8-8a-12-12 0 0 1-12-12a-8-8 0 0 1-8-8a-12-12 0 0 1-12-12zM34 38a 8-8 0 0 0 8-8a 12-12 0 0 1 12-12a 8-8 0 0 0 8-8a 12-12 0 0 1 12-12v4a-8 8 0 0 0-8 8a-12 12 0 0 1-12 12a-8 8 0 0 0-8 8a-12 12 0 0 1-12 12z"
                fill="rgba(100,105,117,0.26)" />
        </pattern>
    </defs>
    <rect fill="url(#doodad)" height="200%" width="200%" />
</svg>